<?xml version="1.0" standalone="no"?>
<!DOCTYPE svg PUBLIC "-//W3C//DTD SVG 1.0//EN" "http://www.w3.org/TR/2001/REC-SVG-20010904/DTD/svg10.dtd">
<svg xmlns="http://www.w3.org/2000/svg" id="body_1" width="320" height="300">

    <g transform="matrix(0.29170465 0 0 0.29170465 -0 0.6472198)">
        <path d="M402.16507 950.8791L1060.2534 950.8791C 1073.3195 950.87274 1085.3956 957.8397 1091.9305 969.1542C 1098.4655 980.4687 1098.4655 994.4105 1091.9305 1005.725C 1085.3956 1017.0394 1073.3195 1024.0063 1060.2534 1024L1060.2534 1024L402.1651 1024C 389.09906 1024.0063 377.0228 1017.0394 370.48795 1005.725C 363.95306 994.41046 363.95306 980.4686 370.48795 969.1542C 377.0228 957.8397 389.09906 950.87274 402.1651 950.8791L402.1651 950.8791L402.16507 950.8791zM994.29834 124.39331C 1013.13245 143.22188 1023.71375 168.7622 1023.71375 195.39372C 1023.71375 222.02524 1013.13245 247.56557 994.29834 266.39413L994.29834 266.39413L284.22107 976.3983C 245.02826 1015.73737 61.56787 1037.82 38.096054 1014.4212L38.096054 1014.4212L9.578896 985.90405C -13.819799 962.43225 8.335839 778.97186 47.528652 739.77905L47.528652 739.77905L757.5328 29.774902C 776.35474 10.900475 801.9143 0.29250336 828.5697 0.29250336C 855.2251 0.29250336 880.78467 10.900475 899.6067 29.774902L899.6067 29.774902L994.2983 124.39337zM946.4041 208.04364C 952.1865 202.2812 955.4368 194.45364 955.4368 186.29016C 955.4368 178.12668 952.1865 170.29912 946.4041 164.5367L946.4041 164.5367L859.3902 77.522804C 853.63074 71.76273 845.81885 68.52671 837.6733 68.52671C 829.5277 68.52671 821.7158 71.76273 815.95636 77.522804L815.95636 77.522804L750.7325 142.8198L881.1802 273.26752L946.40405 208.04366zM282.7586 887.4832L818.9543 351.28754L672.71246 205.0457L136.51672 741.24146L282.75854 887.4833zM87.3795 955.04694C 92.42484 960.38477 226.52861 934.49994 239.25165 921.0457L239.25165 921.0457L272.9604 885.43585L262.28473 896.6965L124.15932 751.0396L101.12623 775.31573C 88.47631 788.76996 63.834557 930.259 68.95302 935.5968L68.95302 935.5968L87.379486 955.047z"
              stroke="none" fill="#CDCDCD" fill-rule="nonzero"/>
    </g>
</svg>
