<?xml version="1.0" standalone="no"?>
<!DOCTYPE svg PUBLIC "-//W3C//DTD SVG 1.0//EN" "http://www.w3.org/TR/2001/REC-SVG-20010904/DTD/svg10.dtd">
<svg xmlns="http://www.w3.org/2000/svg" id="body_1" width="320" height="320">

    <g transform="matrix(0.3125 0 0 0.3125 0 0)">
        <path d="M0 0L0 1024L1024 1024L1024 0L0 0zM950.8571 73.14286L950.8571 219.42859L73.14286 219.42859L73.14286 73.14286L950.8572 73.14286zM73.14286 950.8571L73.14286 292.57144L950.8572 292.57144L950.8572 950.8572L73.14286 950.8572zM358.4 446.17142C 343.77142 438.85712 314.51428 438.85712 299.8857 446.17142L299.8857 446.17142L131.65715 621.7143L307.2 797.25714C 307.2 804.5714 321.82858 804.5714 329.14288 804.5714C 336.45718 804.5714 351.08575 804.5714 358.40002 797.25714C 373.0286 782.62854 373.0286 760.6857 358.40002 746.0571L358.40002 746.0571L234.05714 621.7143L351.08572 504.68573C 365.7143 490.05716 365.7143 460.80002 358.40002 446.17145zM665.6 446.17142C 658.2857 460.8 658.2857 490.05713 665.6 504.6857L665.6 504.6857L782.62854 621.7143L665.6 738.74286C 650.97144 753.37146 650.97144 775.3143 665.6 789.9429C 672.91425 804.5714 687.54285 804.5714 694.8571 804.5715C 702.1714 804.57153 716.8 804.5715 724.11426 797.2572L724.11426 797.2572L899.6571 621.71436L724.11426 446.1715C 709.4857 438.8572 680.2285 438.8572 665.6 446.1715zM555.88574 438.85715C 541.2572 431.54285 519.31433 446.17145 512 468.1143L512 468.1143L438.85715 760.6857C 431.54285 782.6286 446.17145 797.25714 468.1143 804.5715L468.1143 804.5715L475.42856 804.5715C 490.05713 804.5715 504.6857 789.9429 512 775.31433L512 775.31433L585.1429 482.7429C 592.45715 468.11432 577.8286 446.17145 555.88574 438.85718z"
              stroke="none" fill="#CDCDCD" fill-rule="nonzero"/>
    </g>
</svg>
