<?xml version="1.0" standalone="no"?>
<!DOCTYPE svg PUBLIC "-//W3C//DTD SVG 1.0//EN" "http://www.w3.org/TR/2001/REC-SVG-20010904/DTD/svg10.dtd">
<svg xmlns="http://www.w3.org/2000/svg" id="body_1" width="320" height="320">

    <g transform="matrix(0.3125 0 0 0.3125 0 0)">
        <path d="M898.1248 232.7552L545.1264 232.7552C 534.5403 232.74887 524.75555 238.39287 519.4607 247.55968C 514.1658 256.7265 514.1658 268.0223 519.4607 277.18912C 524.75555 286.35593 534.5403 291.9999 545.1264 291.9936L545.1264 291.9936L898.1248 291.9936C 906.31683 291.9936 913.536 301.67038 913.536 312.72958L913.536 312.72958L913.536 719.51355C 913.536 730.57275 906.3424 740.2496 898.1248 740.2496L898.1248 740.2496L545.1264 740.2496C 529.1003 740.72095 516.3531 753.8486 516.3531 769.8816C 516.3531 785.9146 529.1003 799.04224 545.1264 799.51355L545.1264 799.51355L898.1248 799.51355C 939.3664 799.51355 972.80005 763.72473 972.80005 719.51355L972.80005 719.51355L972.80005 312.72955C 972.80005 268.54395 939.36646 232.75516 898.1249 232.75516L898.1249 232.75516L898.1248 232.7552zM125.8752 291.9936L230.912 291.9936C 241.49393 291.9936 251.27203 286.3482 256.563 277.184C 261.85394 268.01978 261.85394 256.729 256.563 247.56479C 251.27202 238.40057 241.49393 232.75519 230.912 232.75519L230.912 232.75519L125.8752 232.75519C 84.6336 232.7552 51.2 268.544 51.2 312.7296L51.2 312.7296L51.2 719.5136C 51.2 763.7248 84.633606 799.5136 125.8752 799.5136L125.8752 799.5136L230.912 799.5136C 246.9381 799.04224 259.68533 785.9146 259.68533 769.8816C 259.68533 753.8486 246.9381 740.72095 230.912 740.24963L230.912 740.24963L125.8752 740.24963C 118.5792 740.24963 110.464 731.7504 110.464 719.5136L110.464 719.5136L110.464 312.7296C 110.464 300.5184 118.57919 291.99362 125.8752 291.99362zM390.5024 106.1376L390.5024 906.1632zM390.5024 134.9376C 382.85974 134.9376 375.53046 131.89981 370.1287 126.49323C 364.7269 121.08665 361.69562 113.75468 361.70242 106.11201L361.70242 106.11201L361.70242 106.1376C 361.70245 95.84835 367.19168 86.34069 376.10245 81.19607C 385.01318 76.051445 395.9917 76.051445 404.90244 81.19607C 413.8132 86.3407 419.30243 95.84835 419.30243 106.1376L419.30243 106.1376L419.30243 906.1632C 419.30243 913.8176 416.25604 921.1136 410.88004 926.54083C 405.4658 931.92847 398.1405 934.9561 390.50244 934.96326z"
              stroke="none" fill="#CDCDCD" fill-rule="nonzero"/>
        <path d="M515.5072 111.1552L260.5312 111.1552C 244.17279 111.1552 230.91199 98.2528 230.91199 82.3808C 230.91199 66.457596 244.1984 53.5552 260.5312 53.5552L260.5312 53.5552L515.5072 53.5552C 531.8912 53.5552 545.152 66.457596 545.152 82.3808C 545.152 98.2528 531.8656 111.1552 515.5072 111.1552zM515.5072 970.4448L260.5312 970.4448C 244.17279 970.4448 230.91199 957.5424 230.91199 941.6192C 230.91199 925.7472 244.1984 912.8448 260.5312 912.8448L260.5312 912.8448L515.5072 912.8448C 531.8912 912.8448 545.152 925.7472 545.152 941.6192C 545.152 957.5424 531.8656 970.4448 515.5072 970.4448z"
              stroke="none" fill="#CDCDCD" fill-rule="nonzero"/>
    </g>
</svg>
