<?xml version="1.0" standalone="no"?>
<!DOCTYPE svg PUBLIC "-//W3C//DTD SVG 1.0//EN" "http://www.w3.org/TR/2001/REC-SVG-20010904/DTD/svg10.dtd">
<svg xmlns="http://www.w3.org/2000/svg" id="body_1" width="320" height="320">

    <g transform="matrix(0.3125 0 0 0.3125 0 0)">
        <path d="M338.2 511.4C 320.5 511.4 306.2 525.7 306.2 543.4C 306.2 561.10004 320.5 575.4 338.2 575.4C 355.90002 575.4 370.2 561.10004 370.2 543.4C 370.2 525.7 355.80002 511.40002 338.2 511.40002L338.2 511.40002L338.2 511.4zM636.5 511.4L448.2 511.4C 430.5 511.4 416.2 525.7 416.2 543.4C 416.2 561.10004 430.5 575.4 448.2 575.4L448.2 575.4L636.5 575.4C 654.2 575.4 668.5 561.10004 668.5 543.4C 668.5 525.7 654.1 511.40002 636.5 511.40002zM338.2 639.2C 320.5 639.2 306.2 653.5 306.2 671.2C 306.2 688.9 320.5 703.2 338.2 703.2C 355.90002 703.2 370.2 688.9 370.2 671.2C 370.2 653.60004 355.80002 639.2 338.2 639.2zM338.2 767.6C 320.5 767.6 306.2 781.89996 306.2 799.6C 306.2 817.3 320.5 831.6 338.2 831.6C 355.90002 831.6 370.2 817.3 370.2 799.6C 370.2 781.89996 355.80002 767.6 338.2 767.6zM388.6 242L355 242C 353.1 242 350.5 243.3 350.2 245.2L350.2 245.2L321 418.7C 320.4 422.40002 323.2 425.7 326.9 425.7L326.9 425.7L357.6 425.7C 359.5 425.7 361.2 424.30002 361.5 422.40002L361.5 422.40002L392.5 246.70003C 393 244.20003 391.1 242.00003 388.6 242.00003zM488.6 414C 500.1 404.8 507.30002 393.7 510.6 374.6L510.6 374.6L524.8 294.3C 528.2 275.19998 524.89996 264.09998 516.7 254.9C 508.5 245.4 494.90002 240.7 480.1 240.7C 465.3 240.7 450 245.3 438.5 254.9C 427 264.1 419.8 275.19998 416.5 294.3L416.5 294.3L402.3 374.59998C 398.9 393.69998 402.19998 404.8 410.4 413.99997C 418.6 423.49997 432.19998 428.19998 447 428.19998C 461.80002 428.19998 477 423.59998 488.6 413.99997zM443.2 376.2L457.90002 292.80002C 459.7 282.6 466.10004 277.7 473.50003 277.7C 480.90002 277.7 485.60004 282.6 483.80002 292.80002L483.80002 292.80002L469.1 376.2C 467.30002 386.40002 460.9 391.30002 453.5 391.30002C 446.1 391.30002 441.5 386.30002 443.2 376.2zM576.9 428.2C 591.7 428.2 607 423.6 618.5 414C 630 404.8 637.2 393.7 640.5 374.6L640.5 374.6L654.7 294.3C 658.10004 275.19998 654.8 264.09998 646.60004 254.9C 638.4 245.4 624.80005 240.7 610.00006 240.7C 595.2001 240.7 579.9001 245.3 568.4001 254.9C 556.9001 264.1 549.7001 275.19998 546.4001 294.3L546.4001 294.3L532.2001 374.59998C 528.80005 393.69998 532.1001 404.8 540.30005 413.99997C 548.4 423.59998 562.10004 428.19998 576.9 428.19998zM573.10004 376.2L587.80005 292.80002C 589.60004 282.6 596.00006 277.7 603.4 277.7C 610.8 277.7 615.5 282.6 613.7 292.80002L613.7 292.80002L599 376.2C 597.2 386.40002 590.8 391.30002 583.4 391.30002C 576.00006 391.30002 571.30005 386.30002 573.10004 376.2zM824.4 767.6L768.4 767.6C 765.10004 767.6 762.4 764.89996 762.4 761.6L762.4 761.6L762.4 725.6C 762.4 707.89996 748.10004 693.6 730.4 693.6C 712.7 693.6 698.4 707.89996 698.4 725.6L698.4 725.6L698.4 783.6C 698.4 810.1 719.9 831.6 746.4 831.6L746.4 831.6L824.4 831.6C 842.10004 831.6 856.4 817.3 856.4 799.6C 856.4 782 842.10004 767.6 824.4 767.6zM644.8 396.4L644.5 396.6L644.3 396.9C 643.7 398 643.6 398.9 644 399.69998C 644.5 400.49997 645.3 400.9 646.6 400.9L646.6 400.9L647 400.9L647.3 400.69998C 648.7 399.9 650 398.99997 651.3 398.09998C 651.5 398.49997 651.89996 398.99997 652.6 399.3L652.6 399.3L652.89996 399.5L659.39996 399.5C 658.39996 408.2 653.8 414.2 645.6 417.8L645.6 417.8L645.19995 418L644.99994 418.4C 644.39996 419.5 644.2999 420.4 644.69995 421.19998C 645.19995 421.99997 645.99994 422.4 647.2999 422.4L647.2999 422.4L647.5999 422.4L647.8999 422.3C 657.8999 418.19998 663.4999 410.59998 664.5999 399.4L664.5999 399.4L676.5999 399.4C 676.99994 399.4 677.0999 399.5 677.0999 399.5C 677.0999 399.5 677.1999 399.7 677.1999 400C 677.1999 403.5 676.79987 408.2 676.1999 413.9C 675.79987 416.6 674.5999 417.1 673.6999 417.19998C 671.5999 417.19998 668.79987 416.49997 665.4999 415.19998L665.4999 415.19998L665.09985 414.99997L664.6998 415.09998C 663.39984 415.39996 662.7998 416.09998 662.59985 416.59998C 662.1998 417.39996 662.39984 418.39996 662.9999 419.49997L662.9999 419.49997L663.29987 419.89996L663.79987 420.09998C 667.4999 421.59998 670.9999 422.3 674.1999 422.3L674.1999 422.3L674.3999 422.3C 676.9999 422.09998 680.3999 420.59998 681.3999 414.69998C 682.0999 410.19998 682.4999 405.09998 682.4999 399.59998C 682.4999 399.19998 682.4999 398.89996 682.3999 398.49997C 683.2999 399.19998 684.1999 399.89996 685.0999 400.49997L685.0999 400.49997L685.3999 400.69998C 685.8999 400.9 686.3999 400.99997 686.7999 400.99997C 687.3999 400.99997 687.8999 400.79996 688.3999 400.49997C 689.0999 399.89996 689.3999 398.99997 689.1999 397.69998L689.1999 397.69998L689.0999 397.09998L688.5999 396.69998C 682.8999 392.59998 677.6999 386.59998 673.0999 378.8L673.0999 378.8L672.8999 378.5L672.5999 378.3C 671.49994 377.69998 670.5999 377.5 669.6999 377.9C 669.1999 378.1 668.4999 378.69998 668.1999 380L668.1999 380L668.0999 380.5L668.3999 381C 671.2999 386.3 674.3999 390.8 677.7999 394.4C 677.5999 394.4 677.3999 394.3 677.0999 394.3L677.0999 394.3L655.6999 394.3C 659.0999 390.8 661.79987 386.5 663.5999 381.5L663.5999 381.5L663.6999 381.1L663.5999 380.7C 663.3999 379.5 662.7999 378.7 661.99994 378.30002C 661.0999 378.00003 660.0999 378.2 659.0999 379.00003L659.0999 379.00003L658.7999 379.30002L658.69995 379.7C 655.99994 386.7 651.2999 392.30002 644.7999 396.40002z"
              stroke="none" fill="#000000" fill-rule="nonzero"/>
        <path d="M864.3 591L862.8 87.79999C 862.8 74.59999 852.1 63.899986 838.89996 63.899986L838.89996 63.899986L188.19995 62.499985C 172.69995 62.499985 160.19995 74.999985 160.19995 90.499985L160.19995 90.499985L160.19995 931C 160.19995 946.5 172.69995 959 188.19995 959L188.19995 959L619.69995 959C 655.69995 984.4 699.6 999.4 747.1 999.4C 869.19995 999.4 968.1 900.5 968.1 778.4C 968 699.4 926.6 630.10004 864.3 591zM448.2 703.2L539.10004 703.2C 531.80005 723.4 527.30005 745 526.30005 767.5L526.30005 767.5L448.20004 767.5C 430.50003 767.5 416.20004 781.8 416.20004 799.5C 416.20004 817.2 430.50003 831.5 448.20004 831.5L448.20004 831.5L532.50006 831.5C 538.10004 854.2 547.30005 875.6 559.30005 894.9L559.30005 894.9L236.1 894.9C 229.5 894.9 224.1 889.5 224.1 882.9L224.1 882.9L224.1 138.5C 224.1 131.9 229.5 126.5 236.1 126.5L236.1 126.5L786.80005 127.8C 793.4 127.8 798.7001 133.2 798.80005 139.8C 799.30005 279.7 800.2001 563.8 800.2001 563.8C 783.1001 559.6 765.30005 557.3 746.9001 557.3C 677.6001 557.3 615.7001 589.2 575.2001 639.2L575.2001 639.2L448.20007 639.2C 430.50006 639.2 416.20007 653.5 416.20007 671.2C 416.20007 688.9 430.50006 703.2 448.20007 703.2zM859.2 888.2C 829.8 918.2 790.5 934.9 748.60004 935.4C 707.10004 935.80005 666.80005 919.7 637.10004 890.60004C 607.10004 861.2 590.4 821.9 589.9 780.00006C 589.5 738.50006 605.60004 698.2001 634.7 668.50006C 664.10004 638.50006 703.4 621.80005 745.3 621.30005C 786.8 620.9 827.1 637.00006 856.8 666.10004C 886.8 695.50006 903.5 734.80005 904 776.7C 904.4 818.2 888.3 858.5 859.2 888.2z"
              stroke="none" fill="#000000" fill-rule="nonzero"/>
    </g>
</svg>
