<?xml version="1.0" standalone="no"?>
<!DOCTYPE svg PUBLIC "-//W3C//DTD SVG 1.0//EN" "http://www.w3.org/TR/2001/REC-SVG-20010904/DTD/svg10.dtd">
<svg xmlns="http://www.w3.org/2000/svg" id="body_1" width="320" height="320">

    <g transform="matrix(0.3125 0 0 0.3125 0 0)">
        <path d="M972.68976 512.1291C 972.68976 554.52826 938.32983 588.9063 895.93787 588.9063L895.93787 588.9063L128.46555 588.9063C 86.08622 588.9063 51.726265 554.5301 51.726265 512.1291C 51.726265 469.71545 86.08622 435.3501 128.46555 435.3501L128.46555 435.3501L895.93787 435.3501C 938.32983 435.3501 972.6898 469.7173 972.6898 512.1291L972.6898 512.1291L972.68976 512.1291zM895.93787 384.15503L128.46555 384.15503C 57.82431 384.15503 0.5619278 441.4463 0.5619278 512.1291C 0.5619278 582.7992 57.824306 640.0905 128.46555 640.0905L128.46555 640.0905L895.93787 640.0905C 966.58813 640.0905 1023.8541 582.79926 1023.8541 512.1291C 1023.8541 441.44632 966.5863 384.15503 895.93787 384.15503zM1023.85406 896.0368C 1023.85406 966.7106 966.5881 1024 895.9378 1024L895.9378 1024L128.46555 1024C 57.82431 1024 0.5619278 966.70874 0.5619278 896.0368C 0.5619278 825.354 57.824306 768.0646 128.46555 768.0646L128.46555 768.0646L895.93787 768.0646C 966.5863 768.0646 1023.8541 825.35406 1023.8541 896.0368zM895.9378 819.2488L128.46555 819.2488C 86.08622 819.2488 51.726265 853.6268 51.726265 896.03503C 51.726265 938.43604 86.08622 972.814 128.46555 972.814L128.46555 972.814L895.93787 972.814C 938.33167 972.814 972.6898 938.43604 972.6898 896.03503C 972.6898 853.62683 938.32983 819.2488 895.93787 819.2488zM153.4807 0C 135.38159 0 127.89853 7.499311 127.89853 25.602032C 127.89853 43.695724 135.38159 51.195034 153.4807 51.195034L153.4807 51.195034L255.80576 51.195034C 273.89944 51.195034 281.38794 43.695724 281.38794 25.602032C 281.38794 7.497505 273.90128 0 255.80577 0L255.80577 0L153.4807 0zM358.1164 0C 340.0209 0 332.53424 7.499311 332.53424 25.602032C 332.53424 43.695724 340.0209 51.195034 358.1164 51.195034L358.1164 51.195034L460.43964 51.195034C 478.53513 51.195034 486.03082 43.695724 486.03082 25.602032C 486.03082 7.497505 478.53333 0 460.43964 0L460.43964 0L358.1164 0zM562.7521 0C 544.6584 0 537.1699 7.499311 537.1699 25.602032C 537.1699 43.695724 544.6566 51.195034 562.7521 51.195034L562.7521 51.195034L665.07715 51.195034C 683.17444 51.195034 690.65753 43.695724 690.65753 25.602032C 690.65753 7.497505 683.1745 0 665.07715 0L665.07715 0L562.7521 0zM767.3931 0C 749.29584 0 741.811 7.499311 741.811 25.602032C 741.811 43.695724 749.294 51.195034 767.3931 51.195034L767.3931 51.195034L869.71277 51.195034C 887.81006 51.195034 895.2949 43.695724 895.2949 25.602032C 895.2949 7.497505 887.81006 0 869.71277 0L869.71277 0L767.3931 0zM869.71277 255.94627C 887.81006 255.94627 895.2949 248.44876 895.2949 230.35327C 895.2949 212.25055 887.81006 204.76207 869.71277 204.76207L869.71277 204.76207L767.3931 204.76207C 749.29584 204.76207 741.811 212.25055 741.811 230.35327C 741.811 248.44876 749.294 255.94627 767.3931 255.94627L767.3931 255.94627L869.71277 255.94627zM665.07715 255.94627C 683.17444 255.94627 690.65753 248.44876 690.65753 230.35327C 690.65753 212.25055 683.1745 204.76207 665.07715 204.76207L665.07715 204.76207L562.7521 204.76207C 544.6584 204.76207 537.1699 212.25055 537.1699 230.35327C 537.1699 248.44876 544.6566 255.94627 562.7521 255.94627L562.7521 255.94627L665.07715 255.94627zM460.43964 255.94627C 478.53513 255.94627 486.03082 248.44876 486.03082 230.35327C 486.03082 212.25055 478.53333 204.76207 460.43964 204.76207L460.43964 204.76207L358.1164 204.76207C 340.0209 204.76207 332.53424 212.25055 332.53424 230.35327C 332.53424 248.44876 340.0209 255.94627 358.1164 255.94627L358.1164 255.94627L460.43964 255.94627zM255.80577 255.94627C 273.89948 255.94627 281.38794 248.44876 281.38794 230.35327C 281.38794 212.25055 273.90128 204.76207 255.80577 204.76207L255.80577 204.76207L153.4807 204.76207C 135.38159 204.76207 127.89853 212.25055 127.89853 230.35327C 127.89853 248.44876 135.38159 255.94627 153.4807 255.94627L153.4807 255.94627L255.80576 255.94627zM65.06359 172.01105C 43.555214 141.26622 47.39967 99.47738 74.16822 73.18735C 87.06855 60.503708 87.16606 49.909325 74.49867 36.989132C 61.816837 24.070742 51.226067 23.984066 38.316708 36.65687C -6.2927284 80.482605 -12.710392 150.1361 23.151955 201.37628C 33.52784 216.20155 43.957893 218.04343 58.77775 207.66393C 73.59941 197.28442 75.44128 186.83812 65.06359 172.01105zM958.27075 172.01105C 979.7791 141.26622 975.93646 99.47738 949.1643 73.18735C 936.264 60.503708 936.1683 49.909325 948.83386 36.989132C 961.5139 24.070742 972.1155 23.984066 985.01764 36.65687C 1029.6271 80.482605 1036.0375 150.1361 1000.1788 201.37628C 989.8011 216.20155 979.37646 218.04343 964.5566 207.66393C 949.7349 197.28442 947.89307 186.83812 958.27075 172.01105z"
              stroke="none" fill="#CDCDCD" fill-rule="nonzero"/>
    </g>
</svg>
