<?xml version="1.0" standalone="no"?>
<!DOCTYPE svg PUBLIC "-//W3C//DTD SVG 1.0//EN" "http://www.w3.org/TR/2001/REC-SVG-20010904/DTD/svg10.dtd">
<svg xmlns="http://www.w3.org/2000/svg" id="body_1" width="320" height="320">

    <g transform="matrix(0.3125 0 0 0.3125 0 0)">
        <path d="M896.32983 384.15872L128.50903 384.15872C 57.83767 384.15872 0.54487 441.4464 0.54487 512.1331C 0.54487 582.80444 57.83255 640.09216 128.50903 640.09216L128.50903 640.09216L896.33496 640.09216C 967.02167 640.09216 1024.3093 582.8045 1024.3093 512.1331C 1024.3093 441.4464 967.01654 384.15872 896.32983 384.15872zM896.32983 588.90753L128.50903 588.90753C 86.11031 588.90753 51.729515 554.53186 51.729515 512.1331C 51.729515 469.72415 86.105194 435.3536 128.50903 435.3536L128.50903 435.3536L896.33496 435.3536C 938.7439 435.3536 973.1247 469.71906 973.1247 512.1331C 973.1247 554.53186 938.7439 588.90753 896.32983 588.90753z"
              stroke="none" fill="#8A8A8A" fill-rule="nonzero"/>
        <path d="M255.90488 255.9488C 274.0092 255.9488 281.49976 248.44801 281.49976 230.35393C 281.49976 212.2496 274.0143 204.75905 255.90488 204.75905L255.90488 204.75905L153.53047 204.75905C 135.42615 204.75905 127.93559 212.24449 127.93559 230.35393C 127.93559 248.44801 135.42104 255.9488 153.53047 255.9488L153.53047 255.9488L255.90488 255.9488zM460.63318 255.9488C 478.72726 255.9488 486.22806 248.44801 486.22806 230.35393C 486.22806 212.2496 478.72726 204.75905 460.63318 204.75905L460.63318 204.75905L358.26392 204.75905C 340.1596 204.75905 332.66904 212.24449 332.66904 230.35393C 332.66904 248.44801 340.15448 255.9488 358.26392 255.9488L358.26392 255.9488L460.63318 255.9488zM665.36664 255.9488C 683.47095 255.9488 690.97174 248.44801 690.97174 230.35393C 690.97174 212.2496 683.47095 204.75905 665.36664 204.75905L665.36664 204.75905L562.99225 204.75905C 544.89307 204.75905 537.3923 212.24449 537.3923 230.35393C 537.3923 248.44801 544.89307 255.9488 562.99225 255.9488L562.99225 255.9488L665.36664 255.9488zM870.095 255.9488C 888.1993 255.9488 895.6898 248.44801 895.6898 230.35393C 895.6898 212.2496 888.1993 204.75905 870.095 204.75905L870.095 204.75905L767.7257 204.75905C 749.6214 204.75905 742.13086 212.24449 742.13086 230.35393C 742.13086 248.44801 749.6214 255.9488 767.7257 255.9488L767.7257 255.9488L870.095 255.9488zM767.72565 0C 749.62134 0 742.13074 7.49568 742.13074 25.6C 742.13074 43.69408 749.6213 51.194878 767.7256 51.194878L767.7256 51.194878L870.09485 51.194878C 888.19916 51.194878 895.6897 43.694077 895.6897 25.599998C 895.6897 7.495678 888.19916 -1.9073486E-06 870.09485 -1.9073486E-06L870.09485 -1.9073486E-06L767.7256 -1.9073486E-06zM153.53047 0C 135.42615 0 127.93559 7.49568 127.93559 25.6C 127.93559 43.69408 135.42104 51.194878 153.53047 51.194878L153.53047 51.194878L255.90488 51.194878C 274.0092 51.194878 281.49976 43.694077 281.49976 25.599998C 281.49976 7.495678 274.0143 -1.9073486E-06 255.90488 -1.9073486E-06L255.90488 -1.9073486E-06L153.53047 -1.9073486E-06zM358.26392 0C 340.1596 0 332.66904 7.49568 332.66904 25.6C 332.66904 43.69408 340.15448 51.194878 358.26392 51.194878L358.26392 51.194878L460.6383 51.194878C 478.7324 51.194878 486.2332 43.694077 486.2332 25.599998C 486.2332 7.495678 478.73752 -1.9073486E-06 460.6383 -1.9073486E-06L460.6383 -1.9073486E-06L358.26392 -1.9073486E-06zM562.99225 0C 544.89307 0 537.3923 7.49568 537.3923 25.6C 537.3923 43.69408 544.89307 51.194878 562.99225 51.194878L562.99225 51.194878L665.36664 51.194878C 683.47095 51.194878 690.97174 43.694077 690.97174 25.599998C 690.97174 7.495678 683.47095 -1.9073486E-06 665.36664 -1.9073486E-06L665.36664 -1.9073486E-06L562.99225 -1.9073486E-06zM65.07735 172.01665C 43.543243 141.27814 47.396095 99.475075 74.18583 73.19041C 87.09335 60.503048 87.19063 49.914886 74.51351 36.99201C 61.831272 24.07425 51.23799 23.98721 38.315113 36.659206C -6.3108063 80.486404 -12.731285 150.13889 23.144554 201.37473C 33.527916 216.20224 43.95735 218.04033 58.784874 207.66208C 73.6124 197.28383 75.46072 186.83904 65.077354 172.01663zM958.6914 172.01665C 980.21466 141.27524 976.36255 99.47993 949.58295 73.19041C 936.6754 60.503048 936.58325 49.914886 949.25525 36.99201C 961.9426 24.07425 972.5359 23.98721 985.4537 36.659206C 1030.0847 80.486404 1036.5001 150.13889 1000.6242 201.37473C 990.24084 216.20224 979.8063 218.04033 964.97876 207.66208C 950.15125 197.28383 948.3132 186.83904 958.6914 172.01663zM767.72565 768.0666C 749.62134 768.0666 742.13074 775.56226 742.13074 793.6615C 742.13074 811.76074 749.6213 819.2513 767.7256 819.2513L767.7256 819.2513L870.09485 819.2513C 888.19916 819.2513 895.6897 811.76074 895.6897 793.6615C 895.6897 775.56226 888.19916 768.06665 870.09485 768.06665L870.09485 768.06665L767.7256 768.06665zM255.90488 1024C 274.0092 1024 281.49976 1016.50946 281.49976 998.4102C 281.49976 980.311 274.0143 972.8153 255.90488 972.8153L255.90488 972.8153L153.53047 972.8153C 135.42615 972.8153 127.93559 980.311 127.93559 998.41016C 127.93559 1016.50934 135.42615 1024 153.53047 1024L153.53047 1024L255.90488 1024zM460.63318 1024C 478.72726 1024 486.22806 1016.50946 486.22806 998.4102C 486.22806 980.311 478.72726 972.8153 460.63318 972.8153L460.63318 972.8153L358.26392 972.8153C 340.1596 972.8153 332.66904 980.311 332.66904 998.41016C 332.66904 1016.50934 340.15958 1024 358.26392 1024L358.26392 1024L460.63318 1024zM153.53047 768.0666C 135.42615 768.0666 127.93559 775.56226 127.93559 793.6615C 127.93559 811.76074 135.42104 819.2513 153.53047 819.2513L153.53047 819.2513L255.90488 819.2513C 274.0092 819.2513 281.49976 811.76074 281.49976 793.6615C 281.49976 775.56226 274.0143 768.06665 255.90488 768.06665L255.90488 768.06665L153.53047 768.06665zM358.26392 768.0666C 340.1596 768.0666 332.66904 775.56226 332.66904 793.6615C 332.66904 811.76074 340.15448 819.2513 358.26392 819.2513L358.26392 819.2513L460.6383 819.2513C 478.7324 819.2513 486.2332 811.76074 486.2332 793.6615C 486.2332 775.56226 478.73752 768.06665 460.6383 768.06665L460.6383 768.06665L358.26392 768.06665zM562.99225 768.0666C 544.89307 768.0666 537.3923 775.56226 537.3923 793.6615C 537.3923 811.76074 544.89307 819.2513 562.99225 819.2513L562.99225 819.2513L665.36664 819.2513C 683.47095 819.2513 690.97174 811.76074 690.97174 793.6615C 690.97174 775.56226 683.47095 768.06665 665.36664 768.06665L665.36664 768.06665L562.99225 768.06665zM870.095 1024C 888.1993 1024 895.6898 1016.50946 895.6898 998.4102C 895.6898 980.311 888.1993 972.8153 870.095 972.8153L870.095 972.8153L767.7257 972.8153C 749.6214 972.8153 742.13086 980.311 742.13086 998.41016C 742.13086 1016.50934 749.62134 1024 767.72565 1024L767.72565 1024L870.0949 1024zM665.36664 1024C 683.47095 1024 690.97174 1016.50946 690.97174 998.4102C 690.97174 980.311 683.47095 972.8153 665.36664 972.8153L665.36664 972.8153L562.99225 972.8153C 544.89307 972.8153 537.3923 980.311 537.3923 998.41016C 537.3923 1016.50934 544.89307 1023.99994 562.99225 1023.99994L562.99225 1023.99994L665.36664 1023.99994zM65.07735 940.07806C 43.543167 909.3341 47.395782 867.52716 74.18583 841.23645C 87.09335 828.56445 87.19063 817.96094 74.51351 805.0534C 61.831272 792.1356 51.23799 792.0384 38.315113 804.7206C -6.3108063 848.54266 -12.731285 918.20026 23.144554 969.4412C 33.527916 984.2585 43.95735 986.1017 58.784874 975.7183C 73.6124 965.3401 75.46072 954.9004 65.077354 940.078zM958.6914 940.07806C 980.2147 909.33124 976.3628 867.53204 949.58295 841.23645C 936.6754 828.56445 936.58325 817.96094 949.25525 805.0534C 961.9426 792.1356 972.5359 792.0384 985.4537 804.7206C 1030.0847 848.54266 1036.5001 918.20026 1000.6242 969.4412C 990.24084 984.2585 979.8063 986.1017 964.97876 975.7183C 950.15125 965.3401 948.3132 954.9004 958.6914 940.078z"
              stroke="none" fill="#CCCCCC" fill-rule="nonzero"/>
    </g>
</svg>
