<?xml version="1.0" standalone="no"?>
<!DOCTYPE svg PUBLIC "-//W3C//DTD SVG 1.0//EN" "http://www.w3.org/TR/2001/REC-SVG-20010904/DTD/svg10.dtd">
<svg xmlns="http://www.w3.org/2000/svg" id="body_1" width="320" height="320">

    <g transform="matrix(0.3125 0 0 0.3125 0 0)">
        <path d="M870.31433 877.39026C 870.31433 877.39026 870.31433 877.39026 870.31433 877.39026C 777.9381 967.97455 651.5517 1024 512 1024C 229.23961 1024 0.017919 794.74176 0.017919 511.98135C 0.017919 229.22096 229.23961 -0.000731 512 -0.000731C 794.7604 -0.000731 1023.98206 229.22096 1023.98206 511.98135C 1023.98206 655.19006 965.06757 784.4655 870.31433 877.39026zM512 950.8597C 615.9324 950.8597 711.3073 914.54553 786.49554 854.13165C 746.45123 740.3985 639.44696 658.26196 512 658.26196C 384.55304 658.26196 277.54877 740.3985 237.50447 854.13165C 312.6927 914.54553 408.06763 950.8597 512 950.8597zM512 73.17613C 269.64963 73.17613 73.15822 269.66754 73.15822 512.01794C 73.15822 621.54553 113.53166 721.4186 179.8699 798.3256C 237.72389 672.5974 364.5126 585.1582 512 585.1582C 659.45087 585.1582 786.2761 672.5974 844.13007 798.3256C 910.4683 721.45514 950.8418 621.54553 950.8418 512.01794C 950.8418 269.66754 754.3504 73.17613 512 73.17613zM512 548.5881C 410.99326 548.5881 329.14926 466.70752 329.14926 365.73734C 329.14926 264.73056 410.99326 182.88658 512 182.88658C 612.97015 182.88658 694.85077 264.73056 694.85077 365.73734C 694.85077 466.70752 612.97015 548.5881 512 548.5881zM512 256.0269C 451.40326 256.0269 402.28955 305.1406 402.28955 365.70074C 402.28955 426.2975 451.40326 475.4112 512 475.4112C 572.59674 475.4112 621.71045 426.2975 621.71045 365.70074C 621.71045 305.1406 572.59674 256.0269 512 256.0269z"
              stroke="none" fill="#000000" fill-rule="nonzero"/>
    </g>
</svg>
