<?xml version="1.0" standalone="no"?>
<!DOCTYPE svg PUBLIC "-//W3C//DTD SVG 1.0//EN" "http://www.w3.org/TR/2001/REC-SVG-20010904/DTD/svg10.dtd">
<svg xmlns="http://www.w3.org/2000/svg" id="body_1" width="320" height="320">

    <g transform="matrix(0.3125 0 0 0.3125 0 0)">
        <path d="M928 563.2C 910.3269 563.2 896 548.8731 896 531.2L896 531.2L896 371.2C 896 353.5269 910.3269 339.2 928 339.2C 945.6731 339.2 960 353.5269 960 371.2L960 371.2L960 531.2C 960 548.8731 945.6731 563.2 928 563.2z"
              stroke="none" fill="#000000" fill-rule="nonzero"/>
        <path d="M515.584 524.8C 494.784 524.8 476.736 521.984 458.688 515.83997L458.688 515.83997L49.28 359.872C 6.336 342.336 0 315.328 0 300.8C 0 286.20798 6.336 259.19998 48.576 241.98398L48.576 241.98398L453.952 86.208C 485.184 74.112 538.688 74.048004 570.112 86.208L570.112 86.208L974.784 241.728C 1017.664 259.136 1024 286.208 1024 300.8C 1024 315.392 1017.664 342.336 975.36 359.616L975.36 359.616L570.048 515.392C 556.73596 521.47205 538.368 524.80005 515.584 524.80005L515.584 524.80005L515.584 524.8zM73.92 300.8L480.38397 455.552C 490.81598 459.13602 501.63196 460.8 515.584 460.8C 532.096 460.8 540.928 458.36798 545.344 456.384L545.344 456.384L950.016 300.8L547.072 145.984C 530.304 139.456 493.56802 139.51999 476.992 145.984L476.992 145.984L73.92 300.8z"
              stroke="none" fill="#000000" fill-rule="nonzero"/>
        <path d="M515.584 644.16C 494.848 644.16 476.8 641.27997 458.688 635.136L458.688 635.136L180.16 529.152L202.88 469.31198L480.32 574.97595C 490.816 578.496 501.63202 580.22394 515.52 580.22394C 531.968 580.22394 540.80005 577.79193 545.28 575.74396L545.28 575.74396L820.416 469.95197L843.392 529.72797L570.04803 634.75195C 556.67206 640.89594 538.304 644.16 515.58405 644.16L515.58405 644.16L515.584 644.16z"
              stroke="none" fill="#000000" fill-rule="nonzero"/>
        <path d="M515.456 947.2C 350.656 947.2 169.15201 896.83203 160.12799 786.176L160.12799 786.176L160 499.2C 160 481.5269 174.32689 467.2 192 467.2C 209.67311 467.2 224 481.5269 224 499.2L224 499.2L224 780.224C 228.416 836.352 361.92 883.2 515.456 883.2C 636.224 883.2 747.776 854.848 786.75195 814.27203C 796.09595 804.60803 800.384 794.94403 799.936 784.89606L799.936 784.89606L799.936 501.504C 799.936 483.83087 814.2629 469.504 831.936 469.504C 849.6091 469.504 863.936 483.83087 863.936 501.504L863.936 501.504L863.936 780.224C 865.08795 809.856 854.336 836.224 832.95996 858.56C 770.17596 923.904 627.83997 947.2 515.45593 947.2L515.45593 947.2L515.456 947.2zM896 627.2C 896 638.6325 902.0992 649.1966 912 654.91284C 921.9008 660.6291 934.0992 660.6291 944 654.91284C 953.9008 649.1966 960 638.6325 960 627.2C 960 615.7675 953.9008 605.2034 944 599.4872C 934.0992 593.77094 921.9008 593.77094 912 599.4872C 902.0992 605.2034 896 615.7675 896 627.2z"
              stroke="none" fill="#000000" fill-rule="nonzero"/>
    </g>
</svg>
