<?xml version="1.0" standalone="no"?>
<!DOCTYPE svg PUBLIC "-//W3C//DTD SVG 1.0//EN" "http://www.w3.org/TR/2001/REC-SVG-20010904/DTD/svg10.dtd">
<svg xmlns="http://www.w3.org/2000/svg" id="body_1" width="320" height="320">

    <g transform="matrix(0.3125 0 0 0.3125 0 0)">
        <path d="M892.8 467C 880.7 463.4 867.89996 470.3 864.3 482.5L864.3 482.5L786.1 746.4C 754 631.3 664.6 539.9 550.6 505.2C 607.8 470.5 646.1 407.7 646.1 336.1C 646.1 227.20001 557.5 138.5 448.49997 138.5C 339.49994 138.5 251 227.1 251 336C 251 407.6 289.3 470.4 346.5 505.1C 202.9 548.9 98.2 682.6 98.2 840.3C 98.2 851.8 98.799995 863.5 100 875.3L100 875.3L102 896L795.1 896L797.19995 875.3C 797.49994 872.6 797.69995 869.89996 797.89996 867.2C 798.39996 866.2 798.8 865.2 799.1 864.10004L799.1 864.10004L908.3 495.50003C 911.89996 483.40002 904.89996 470.60004 892.8 467.00003L892.8 467.00003L892.8 467zM296.8 336C 296.8 252.3 364.9 184.3 448.5 184.3C 532.1 184.3 600.3 252.4 600.3 336C 600.3 419.6 532.2 487.7 448.59998 487.7C 364.99994 487.7 296.8 419.7 296.8 336zM752.9 850.1L144.2 850.1C 144.09999 846.8 144 843.5 144 840.3C 144 679.69995 268.9 547.8 426.7 536.6L426.7 536.6L426.7 666.39996C 426.7 668.49994 426.30002 670.49994 425.5 672.39996L425.5 672.39996L407.4 714.6C 405.19998 719.8 406 725.8 409.5 730.19995L409.5 730.19995L437.7 765.39996C 443.80002 773.1 455.5 773.1 461.6 765.39996L461.6 765.39996L489.80002 730.19995C 493.30002 725.7999 494.1 719.7999 491.90002 714.6L491.90002 714.6L473.80002 672.39996C 473.00003 670.49994 472.6 668.39996 472.6 666.39996L472.6 666.39996L472.6 536.7C 629.3 549 753.1 680.5 753.1 840.3C 753.1 843.5 753 846.8 752.89996 850.1zM908.1 169L724.7 169C 712 169 701.8 179.3 701.8 191.9C 701.8 204.59999 712.1 214.79999 724.7 214.79999L724.7 214.79999L908.1 214.79999C 920.8 214.79999 931 204.49998 931 191.9C 931 179.29999 920.7 169 908.1 169z"
              stroke="none" fill="#353637" fill-rule="nonzero"/>
        <path d="M847 337.1C 859.7 337.1 869.9 326.80002 869.9 314.2C 869.9 301.6 859.60004 291.30002 847 291.30002L847 291.30002L724.7 291.30002C 712 291.30002 701.8 301.6 701.8 314.2C 701.8 326.80002 712.1 337.1 724.7 337.1L724.7 337.1L847 337.1z"
              stroke="none" fill="#353637" fill-rule="nonzero"/>
    </g>
</svg>
