<?xml version="1.0" standalone="no"?>
<!DOCTYPE svg PUBLIC "-//W3C//DTD SVG 1.0//EN" "http://www.w3.org/TR/2001/REC-SVG-20010904/DTD/svg10.dtd">
<svg xmlns="http://www.w3.org/2000/svg" id="body_1" width="320" height="320">

    <g transform="matrix(0.3125 0 0 0.3125 0 0)">
        <path d="M870.4 0L153.6 0C 68.8 0 0 68.8 0 153.6L0 153.6L0 870.4C 0 955.2 68.8 1024 153.6 1024L153.6 1024L870.4 1024C 955.2 1024 1024 955.2 1024 870.4L1024 870.4L1024 153.6C 1024 68.8 955.2 0 870.4 0zM951 870.4C 951 914.80005 914.8 951 870.4 951L870.4 951L153.6 951C 109.200005 951 73.00001 914.8 73.00001 870.4L73.00001 870.4L73.00001 153.6C 73.00001 109.200005 109.20001 73.00001 153.6 73.00001L153.6 73.00001L870.4 73.00001C 914.80005 73.00001 951 109.20001 951 153.6L951 153.6L951 870.4zM550 579.2C 553.6 582.8 558.8 585 564.6 585C 569.8 585 574.8 582.8 579.19995 579.2C 587.19995 571.2 587.19995 558 579.19995 550L579.19995 550L394.79996 365.6L579.19995 181.20001C 586.6 173.20001 586.6 160.00002 578.39996 152.00002C 570.39996 144.00002 557.99994 144.00002 549.8 152.00002L549.8 152.00002L365.4 336.40002L181.4 152.20003C 173.4 144.20003 160.2 144.20003 152.2 152.20003C 144.2 160.20003 144.2 173.40002 152.2 181.40002L152.2 181.40002L336.59998 365.80002L152.2 550C 144.2 558 144.2 570.4 152.2 578.6C 160.2 586.6 173.4 586.6 181.4 579.39996L181.4 579.39996L365.8 394.99997L550 579.19995zM545 786.2L420.6 689.60004L365.80002 733.4L580.80005 950.60004C 617.4 856.2 734.4 672.60004 877.80005 541.80005L877.80005 541.80005L864.60004 511.80005C 708.80005 607.00006 596.2001 726.4 545 786.2001z"
              stroke="none" fill="#CDCDCD" fill-rule="nonzero"/>
    </g>
</svg>
