<?xml version="1.0" standalone="no"?><!DOCTYPE svg PUBLIC "-//W3C//DTD SVG 1.1//EN" "http://www.w3.org/Graphics/SVG/1.1/DTD/svg11.dtd"><svg class="icon" width="64px" height="59.74px" viewBox="0 0 1097 1024" version="1.1" xmlns="http://www.w3.org/2000/svg"><path fill="#cdcdcd" d="M402.165065 950.879079h658.088288a36.56046 36.56046 0 1 1 0 73.120921h-658.088288a36.56046 36.56046 0 1 1 0-73.120921z m592.133217-826.485768a100.395024 100.395024 0 0 1 0 142.000828l-710.077263 710.004142c-39.192814 39.339055-222.653204 61.421574-246.125019 38.022878l-28.517159-28.517159c-23.398695-23.471816-1.243056-206.932206 37.949758-246.125019l710.004141-710.004142a100.321903 100.321903 0 0 1 142.073949 0l94.691593 94.618472z m-47.894203 83.650333a30.710787 30.710787 0 0 0 0-43.506948l-87.013896-87.013896a30.710787 30.710787 0 0 0-43.433827 0l-65.223861 65.296983 130.447722 130.447722 65.223862-65.223861z m-663.645478 679.439597L818.954314 351.287528l-146.241842-146.241842-536.195713 536.195713 146.241842 146.241842z m-195.379101 67.563731c5.045344 5.337827 139.149112-20.546979 151.872153-34.001229l33.708745-35.609888-10.675655 11.260622-138.125419-145.656875-23.03309 24.276146c-12.649919 13.454249-37.29167 154.943231-32.173206 160.281059l18.426472 19.450165z"  /></svg>