<?xml version="1.0" standalone="no"?><!DOCTYPE svg PUBLIC "-//W3C//DTD SVG 1.1//EN" "http://www.w3.org/Graphics/SVG/1.1/DTD/svg11.dtd"><svg class="icon" width="64px" height="64.00px" viewBox="0 0 1024 1024" version="1.1" xmlns="http://www.w3.org/2000/svg"><path fill="#cdcdcd" d="M864.711111 771.982222a341.333333 341.333333 0 0 0-95.004444-238.933333 323.697778 323.697778 0 0 0-106.951111-74.524445 204.231111 204.231111 0 0 0 70.542222-155.306666A196.835556 196.835556 0 0 0 540.444444 102.4a196.835556 196.835556 0 0 0-192.284444 200.817778 204.231111 204.231111 0 0 0 70.542222 155.306666 323.697778 323.697778 0 0 0-107.52 74.524445 341.333333 341.333333 0 0 0-95.004444 238.933333 35.84 35.84 0 0 0 11.377778 24.462222 27.875556 27.875556 0 0 0 21.617777 10.808889h574.577778a30.72 30.72 0 0 0 11.946667-2.844444 35.271111 35.271111 0 0 0 29.013333-32.426667zM416.995556 303.217778A127.431111 127.431111 0 0 1 540.444444 173.511111a126.862222 126.862222 0 0 1 123.448889 129.706667A126.862222 126.862222 0 0 1 540.444444 432.924444a126.862222 126.862222 0 0 1-123.448888-129.706666zM540.444444 505.173333a259.413333 259.413333 0 0 1 256 247.466667H287.288889A259.413333 259.413333 0 0 1 540.444444 505.173333z"  /></svg>