<?xml version="1.0" standalone="no"?><!DOCTYPE svg PUBLIC "-//W3C//DTD SVG 1.1//EN" "http://www.w3.org/Graphics/SVG/1.1/DTD/svg11.dtd"><svg class="icon" width="64px" height="64.00px" viewBox="0 0 1024 1024" version="1.1" xmlns="http://www.w3.org/2000/svg"><path fill="#cdcdcd" d="M870.4 0H153.6C68.8 0 0 68.8 0 153.6v716.8C0 955.2 68.8 1024 153.6 1024h716.8c84.8 0 153.6-68.8 153.6-153.6V153.6C1024 68.8 955.2 0 870.4 0z m80.6 870.4c0 44.4-36.2 80.6-80.6 80.6H153.6c-44.4 0-80.6-36.2-80.6-80.6V153.6c0-44.4 36.2-80.6 80.6-80.6h716.8c44.4 0 80.6 36.2 80.6 80.6v716.8zM550 579.2c3.6 3.6 8.8 5.8 14.6 5.8 5.2 0 10.2-2.2 14.6-5.8 8-8 8-21.2 0-29.2l-184.4-184.4 184.4-184.4c7.4-8 7.4-21.2-0.8-29.2-8-8-20.4-8-28.6 0l-184.4 184.4-184-184.2c-8-8-21.2-8-29.2 0s-8 21.2 0 29.2l184.4 184.4L152.2 550c-8 8-8 20.4 0 28.6 8 8 21.2 8 29.2 0.8l184.4-184.4 184.2 184.2zM545 786.2l-124.4-96.6-54.8 43.8 215 217.2c36.6-94.4 153.6-278 297-408.8l-13.2-30c-155.8 95.2-268.4 214.6-319.6 274.4z" /></svg>