<svg width="1133" height="804" viewBox="0 0 1133 804" xmlns="http://www.w3.org/2000/svg">
    <defs/>
    <g transform="translate(5.5,5.5)" id="page1">
        <rect x="0" width="1123" height="794" y="0" fill="#ffffff"/>
        <g transform="translate(146.00,96.00)" id="shape1">
            <path stroke="#323232" fill="#8ba7e1" fill-rule="nonzero" d="M.0,.0L120.0,.0L120.0,60.0L.0,60.0L.0,.0z"/>
            <text style="fill:#191919;font-family:Microsoft YaHei;font-size:20.00pt" xml:space="preserve"><tspan x="6.0" y="40.5">一场考试</tspan></text>
        </g>
        <path stroke="#323232" transform="translate(196.00,203.00)" id="shape2" fill="#42c181" fill-rule="nonzero"
              d="M.0,.0L20.0,.0L20.0,425.0L.0,425.0L.0,.0z"/>
        <g transform="translate(206.00,628.00)" id="shape3">
            <path stroke="#191919" fill="none" d="M.0,.0L.0,46.0"/>
            <path stroke-width="1" stroke="#191919" fill="#191919" stroke-linecap="round"
                  d="M3.0,46.0L.0,52.0L-3.0,46.0L3.0,46.0"/>
        </g>
        <g transform="translate(206.00,156.00)" id="shape4">
            <path stroke="#191919" fill="none" d="M.0,.0L.0,41.0"/>
            <path stroke-width="1" stroke="#191919" fill="#191919" stroke-linecap="round"
                  d="M3.0,41.0L.0,47.0L-3.0,41.0L3.0,41.0"/>
        </g>
        <g transform="translate(333.00,96.00)" id="shape5">
            <path stroke="#323232" fill="#8ba7e1" fill-rule="nonzero" d="M.0,.0L120.0,.0L120.0,60.0L.0,60.0L.0,.0z"/>
            <text style="fill:#191919;font-family:Microsoft YaHei;font-size:20.00pt" xml:space="preserve"><tspan x="23.5" y="40.5">考生A</tspan></text>
        </g>
        <path stroke="#323232" transform="translate(383.00,222.00)" id="shape6" fill="#007faf" fill-rule="nonzero"
              d="M.0,.0L20.0,.0L20.0,307.0L.0,307.0L.0,.0z"/>
        <g transform="translate(393.00,529.00)" id="shape7">
            <path stroke="#191919" fill="none" d="M.0,.0L.0,145.0"/>
            <path stroke-width="1" stroke="#191919" fill="#191919" stroke-linecap="round"
                  d="M3.0,145.0L.0,151.0L-3.0,145.0L3.0,145.0"/>
        </g>
        <g transform="translate(393.00,156.00)" id="shape8">
            <path stroke="#191919" fill="none" d="M.0,.0L.0,60.0"/>
            <path stroke-width="1" stroke="#191919" fill="#191919" stroke-linecap="round"
                  d="M3.0,60.0L.0,66.0L-3.0,60.0L3.0,60.0"/>
        </g>
        <g transform="translate(522.00,96.00)" id="shape9">
            <path stroke="#323232" fill="#8ba7e1" fill-rule="nonzero" d="M.0,.0L120.0,.0L120.0,60.0L.0,60.0L.0,.0z"/>
            <text style="fill:#191919;font-family:Microsoft YaHei;font-size:20.00pt" xml:space="preserve"><tspan x="24.5" y="40.5">考生B</tspan></text>
        </g>
        <path stroke="#323232" transform="translate(572.00,302.00)" id="shape10" fill="#007faf" fill-rule="nonzero"
              d="M.0,.0L20.0,.0L20.0,307.0L.0,307.0L.0,.0z"/>
        <g transform="translate(582.00,609.00)" id="shape11">
            <path stroke="#191919" fill="none" d="M.0,.0L.0,65.0"/>
            <path stroke-width="1" stroke="#191919" fill="#191919" stroke-linecap="round"
                  d="M3.0,65.0L.0,71.0L-3.0,65.0L3.0,65.0"/>
        </g>
        <g transform="translate(582.00,156.00)" id="shape12">
            <path stroke="#191919" fill="none" d="M.0,.0L.0,140.0"/>
            <path stroke-width="1" stroke="#191919" fill="#191919" stroke-linecap="round"
                  d="M3.0,140.0L.0,146.0L-3.0,140.0L3.0,140.0"/>
        </g>
        <g transform="translate(711.00,96.00)" id="shape13">
            <path stroke="#323232" fill="#8ba7e1" fill-rule="nonzero" d="M.0,.0L120.0,.0L120.0,60.0L.0,60.0L.0,.0z"/>
            <text style="fill:#191919;font-family:Microsoft YaHei;font-size:20.00pt" xml:space="preserve"><tspan x="24.0" y="40.5">考生C</tspan></text>
        </g>
        <path stroke="#323232" transform="translate(761.00,529.00)" id="shape14" fill="#007faf" fill-rule="nonzero"
              d="M.0,.0L20.0,.0L20.0,99.0L.0,99.0L.0,.0z"/>
        <g transform="translate(771.00,628.00)" id="shape15">
            <path stroke="#191919" fill="none" d="M.0,.0L.0,46.0"/>
            <path stroke-width="1" stroke="#191919" fill="#191919" stroke-linecap="round"
                  d="M3.0,46.0L.0,52.0L-3.0,46.0L3.0,46.0"/>
        </g>
        <g transform="translate(771.00,156.00)" id="shape16">
            <path stroke="#191919" fill="none" d="M.0,.0L.0,367.0"/>
            <path stroke-width="1" stroke="#191919" fill="#191919" stroke-linecap="round"
                  d="M3.0,367.0L.0,373.0L-3.0,367.0L3.0,367.0"/>
        </g>
        <path stroke-width="3" stroke-dasharray="11,5" stroke="#fd8851" transform="translate(206.00,628.00)"
              id="shape17" fill="none" d="M.0,.0L565.0,.0"/>
        <path stroke-width="3" stroke-dasharray="11,5" stroke="#8acf57" transform="translate(206.00,203.00)"
              id="shape18" fill="none" d="M.0,.0L565.0,.0"/>
        <g transform="translate(831.00,189.00)" id="shape19">
            <text style="fill:#8acf57;font-family:Microsoft YaHei;font-size:16.00pt" xml:space="preserve"><tspan x="5.5" y="27.0">开始时刻</tspan>
                <tspan
                        x="21.0" y="55.0">14:00</tspan></text>
        </g>
        <g transform="translate(831.00,572.00)" id="shape20">
            <text style="fill:#fd8851;font-family:Microsoft YaHei;font-size:16.00pt" xml:space="preserve"><tspan x="5.5" y="27.0">结束时刻</tspan>
                <tspan
                        x="21.0" y="55.0">17:00</tspan></text>
        </g>
        <g transform="translate(831.00,363.85)" id="shape21">
            <text style="fill:#007faf;font-family:Microsoft YaHei;font-size:16.00pt" xml:space="preserve"><tspan x="5.5" y="27.0">考试限时</tspan>
                <tspan
                        x="17.5" y="55.0">2 小时</tspan></text>
        </g>
    </g>
</svg>
