<?xml version="1.0" standalone="no"?><!DOCTYPE svg PUBLIC "-//W3C//DTD SVG 1.1//EN"
  "http://www.w3.org/Graphics/SVG/1.1/DTD/svg11.dtd">
<svg class="icon" width="64px" height="64.00px" viewBox="0 0 1024 1024" version="1.1"
     xmlns="http://www.w3.org/2000/svg">
  <path fill="#cdcdcd"
        d="M898.1248 232.7552H545.1264a29.6192 29.6192 0 1 0 0 59.2384h352.9984c8.192 0 15.4112 9.6768 15.4112 20.736v406.784c0 11.0592-7.1936 20.736-15.4112 20.736H545.1264a29.6448 29.6448 0 0 0 0 59.264h352.9984c41.2416 0 74.6752-35.7888 74.6752-80v-406.784c0-44.1856-33.4336-79.9744-74.6752-79.9744zM125.8752 291.9936H230.912a29.6192 29.6192 0 1 0 0-59.2384H125.8752C84.6336 232.7552 51.2 268.544 51.2 312.7296v406.784c0 44.2112 33.4336 80 74.6752 80H230.912a29.6448 29.6448 0 0 0 0-59.264H125.8752c-7.296 0-15.4112-8.4992-15.4112-20.736v-406.784c0-12.2112 8.1152-20.736 15.4112-20.736z m0 0M390.5024 106.1376v800.0256m0 28.8a28.8 28.8 0 0 1-28.8-28.8256V106.1376a28.8 28.8 0 1 1 57.6 0v800.0256c0 7.6544-3.0464 14.9504-8.4224 20.3776a28.928 28.928 0 0 1-20.3776 8.4224z m0 0"/>
  <path fill="#cdcdcd"
        d="M515.5072 111.1552h-254.976c-16.3584 0-29.6192-12.9024-29.6192-28.7744 0-15.9232 13.2864-28.8256 29.6192-28.8256h254.976c16.384 0 29.6448 12.9024 29.6448 28.8256 0 15.872-13.2864 28.7744-29.6448 28.7744zM515.5072 970.4448h-254.976c-16.3584 0-29.6192-12.9024-29.6192-28.8256 0-15.872 13.2864-28.7744 29.6192-28.7744h254.976c16.384 0 29.6448 12.9024 29.6448 28.7744 0 15.9232-13.2864 28.8256-29.6448 28.8256z"/>
</svg>
