<?xml version="1.0" standalone="no"?><!DOCTYPE svg PUBLIC "-//W3C//DTD SVG 1.1//EN"
  "http://www.w3.org/Graphics/SVG/1.1/DTD/svg11.dtd">
<svg class="icon" width="64px" height="64.00px" viewBox="0 0 1024 1024" version="1.1"
     xmlns="http://www.w3.org/2000/svg">
  <path fill="#cdcdcd"
        d="M0 0v1024h1024V0H0z m950.857143 73.142857v146.285714H73.142857V73.142857h877.714286zM73.142857 950.857143V292.571429h877.714286v658.285714H73.142857zM358.4 446.171429c-14.628571-7.314286-43.885714-7.314286-58.514286 0L131.657143 621.714286l175.542857 175.542857c0 7.314286 14.628571 7.314286 21.942857 7.314286s21.942857 0 29.257143-7.314286c14.628571-14.628571 14.628571-36.571429 0-51.2L234.057143 621.714286l117.028571-117.028572c14.628571-14.628571 14.628571-43.885714 7.314286-58.514285zM665.6 446.171429c-7.314286 14.628571-7.314286 43.885714 0 58.514285l117.028571 117.028572-117.028571 117.028571c-14.628571 14.628571-14.628571 36.571429 0 51.2 7.314286 14.628571 21.942857 14.628571 29.257143 14.628572s21.942857 0 29.257143-7.314286l175.542857-175.542857-175.542857-175.542857c-14.628571-7.314286-43.885714-7.314286-58.514286 0zM555.885714 438.857143c-14.628571-7.314286-36.571429 7.314286-43.885714 29.257143l-73.142857 292.571428c-7.314286 21.942857 7.314286 36.571429 29.257143 43.885715h7.314285c14.628571 0 29.257143-14.628571 36.571429-29.257143l73.142857-292.571429c7.314286-14.628571-7.314286-36.571429-29.257143-43.885714z"/>
</svg>
