<?xml version="1.0" standalone="no"?><!DOCTYPE svg PUBLIC "-//W3C//DTD SVG 1.1//EN"
  "http://www.w3.org/Graphics/SVG/1.1/DTD/svg11.dtd">
<svg t="1646663333762" class="icon" viewBox="0 0 1024 1024" version="1.1" xmlns="http://www.w3.org/2000/svg" p-id="9286"
     width="64" height="64">
  <defs>
    <style type="text/css"></style>
  </defs>
  <path
    d="M877.714 0H146.286c-36.572 0-73.143 36.571-73.143 73.143v877.714c0 43.886 29.257 73.143 73.143 73.143h731.428c36.572 0 73.143-36.571 73.143-73.143V73.143C950.857 29.257 921.6 0 877.714 0zM358.4 760.686L226.743 636.343l51.2-51.2 80.457 73.143L497.371 497.37l58.515 51.2L358.4 760.686z m0-292.572L226.743 343.771l51.2-51.2 80.457 73.143L497.371 204.8l58.515 51.2L358.4 468.114zM804.571 731.43H585.143v-73.143H804.57v73.143z m0-292.572H585.143v-73.143H804.57v73.143z"
    p-id="9287"></path>
</svg>
