<?xml version="1.0" standalone="no"?><!DOCTYPE svg PUBLIC "-//W3C//DTD SVG 1.1//EN"
  "http://www.w3.org/Graphics/SVG/1.1/DTD/svg11.dtd">
<svg t="1646662656695" class="icon" viewBox="0 0 1462 1024" version="1.1" xmlns="http://www.w3.org/2000/svg" p-id="6025"
     width="91.375" height="64">
  <defs>
    <style type="text/css"></style>
  </defs>
  <path
    d="M1365.333333 1024H97.52381a97.52381 97.52381 0 0 1-97.52381-97.52381V97.52381a97.52381 97.52381 0 0 1 97.52381-97.52381h1267.809523a97.816381 97.816381 0 0 1 97.52381 97.52381v828.95238a97.816381 97.816381 0 0 1-97.52381 97.52381zM341.333333 146.285714a146.285714 146.285714 0 1 0 146.285715 146.285715 146.285714 146.285714 0 0 0-146.285715-146.285715z m195.047619 438.857143H243.809524a48.761905 48.761905 0 0 0 0 97.52381h292.571428a48.761905 48.761905 0 0 0 0-97.52381z m341.333334 195.047619H243.809524a48.761905 48.761905 0 0 0 0 97.52381h633.904762a48.761905 48.761905 0 0 0 0-97.52381z"
    p-id="6026"></path>
</svg>
