<?xml version="1.0" standalone="no"?><!DOCTYPE svg PUBLIC "-//W3C//DTD SVG 1.1//EN"
  "http://www.w3.org/Graphics/SVG/1.1/DTD/svg11.dtd">
<svg class="icon" width="64px" height="64.00px" viewBox="0 0 1024 1024" version="1.1"
     xmlns="http://www.w3.org/2000/svg">
  <path
    d="M896.32983 384.15872H128.50903C57.83767 384.15872 0.54487 441.4464 0.54487 512.13312c0 70.67136 57.28768 127.95904 127.96416 127.95904h767.82592c70.68672 0 127.9744-57.28768 127.9744-127.95904 0-70.68672-57.2928-127.9744-127.97952-127.9744z m0 204.7488H128.50903c-42.39872 0-76.77952-34.37568-76.77952-76.7744 0-42.40896 34.37568-76.77952 76.77952-76.77952h767.82592c42.40896 0 76.78976 34.36544 76.78976 76.77952 0 42.39872-34.3808 76.7744-76.79488 76.7744z"
    fill="#8A8A8A"/>
  <path
    d="M255.90487 255.9488c18.10432 0 25.59488-7.5008 25.59488-25.59488 0-18.10432-7.48544-25.59488-25.59488-25.59488H153.53047c-18.10432 0-25.59488 7.48544-25.59488 25.59488 0 18.09408 7.48544 25.59488 25.59488 25.59488h102.3744zM460.63319 255.9488c18.09408 0 25.59488-7.5008 25.59488-25.59488 0-18.10432-7.5008-25.59488-25.59488-25.59488H358.26391c-18.10432 0-25.59488 7.48544-25.59488 25.59488 0 18.09408 7.48544 25.59488 25.59488 25.59488h102.36928zM665.36663 255.9488c18.10432 0 25.60512-7.5008 25.60512-25.59488 0-18.10432-7.5008-25.59488-25.60512-25.59488h-102.3744c-18.0992 0-25.6 7.48544-25.6 25.59488 0 18.09408 7.5008 25.59488 25.6 25.59488h102.3744zM870.09495 255.9488c18.10432 0 25.59488-7.5008 25.59488-25.59488 0-18.10432-7.49056-25.59488-25.59488-25.59488h-102.36928c-18.10432 0-25.59488 7.48544-25.59488 25.59488 0 18.09408 7.49056 25.59488 25.59488 25.59488h102.36928zM767.72567 0c-18.10432 0-25.59488 7.49568-25.59488 25.6 0 18.09408 7.49056 25.59488 25.59488 25.59488h102.36928c18.10432 0 25.59488-7.5008 25.59488-25.59488 0-18.10432-7.49056-25.6-25.59488-25.6h-102.36928zM153.53047 0c-18.10432 0-25.59488 7.49568-25.59488 25.6 0 18.09408 7.48544 25.59488 25.59488 25.59488h102.3744c18.10432 0 25.59488-7.5008 25.59488-25.59488 0-18.10432-7.48544-25.6-25.59488-25.6H153.53047zM358.26391 0c-18.10432 0-25.59488 7.49568-25.59488 25.6 0 18.09408 7.48544 25.59488 25.59488 25.59488h102.3744c18.09408 0 25.59488-7.5008 25.59488-25.59488 0-18.10432-7.49568-25.6-25.59488-25.6H358.26391zM562.99223 0c-18.0992 0-25.6 7.49568-25.6 25.6 0 18.09408 7.5008 25.59488 25.6 25.59488h102.3744c18.10432 0 25.60512-7.5008 25.60512-25.59488 0-18.10432-7.5008-25.6-25.60512-25.6h-102.3744zM65.07735 172.01664a76.75392 76.75392 0 0 1 9.10848-98.82624c12.90752-12.68736 13.0048-23.27552 0.32768-36.1984-12.68224-12.91776-23.27552-13.0048-36.1984-0.3328-44.62592 43.8272-51.0464 113.47968-15.17056 164.71552 10.38336 14.82752 20.8128 16.6656 35.64032 6.28736s16.67584-20.82304 6.29248-35.64544zM958.69143 172.01664a76.77952 76.77952 0 0 0-9.10848-98.82624c-12.90752-12.68736-12.99968-23.27552-0.32768-36.1984 12.68736-12.91776 23.28064-13.0048 36.1984-0.3328 44.63104 43.8272 51.0464 113.47968 15.17056 164.71552-10.38336 14.82752-20.81792 16.6656-35.64544 6.28736s-16.6656-20.82304-6.28736-35.64544zM767.72567 768.06656c-18.10432 0-25.59488 7.49568-25.59488 25.59488s7.49056 25.58976 25.59488 25.58976h102.36928c18.10432 0 25.59488-7.49056 25.59488-25.58976s-7.49056-25.59488-25.59488-25.59488h-102.36928zM255.90487 1024c18.10432 0 25.59488-7.49056 25.59488-25.58976s-7.48544-25.59488-25.59488-25.59488H153.53047c-18.10432 0-25.59488 7.49568-25.59488 25.59488S135.42615 1024 153.53047 1024h102.3744zM460.63319 1024c18.09408 0 25.59488-7.49056 25.59488-25.58976s-7.5008-25.59488-25.59488-25.59488H358.26391c-18.10432 0-25.59488 7.49568-25.59488 25.59488S340.15959 1024 358.26391 1024h102.36928zM153.53047 768.06656c-18.10432 0-25.59488 7.49568-25.59488 25.59488s7.48544 25.58976 25.59488 25.58976h102.3744c18.10432 0 25.59488-7.49056 25.59488-25.58976s-7.48544-25.59488-25.59488-25.59488H153.53047zM358.26391 768.06656c-18.10432 0-25.59488 7.49568-25.59488 25.59488s7.48544 25.58976 25.59488 25.58976h102.3744c18.09408 0 25.59488-7.49056 25.59488-25.58976s-7.49568-25.59488-25.59488-25.59488H358.26391zM562.99223 768.06656c-18.0992 0-25.6 7.49568-25.6 25.59488s7.5008 25.58976 25.6 25.58976h102.3744c18.10432 0 25.60512-7.49056 25.60512-25.58976s-7.5008-25.59488-25.60512-25.59488h-102.3744zM870.09495 1024c18.10432 0 25.59488-7.49056 25.59488-25.58976s-7.49056-25.59488-25.59488-25.59488h-102.36928c-18.10432 0-25.59488 7.49568-25.59488 25.59488S749.62135 1024 767.72567 1024h102.36928zM665.36663 1024c18.10432 0 25.60512-7.49056 25.60512-25.58976s-7.5008-25.59488-25.60512-25.59488h-102.3744c-18.0992 0-25.6 7.49568-25.6 25.59488s7.5008 25.58976 25.6 25.58976h102.3744zM65.07735 940.07808a76.7744 76.7744 0 0 1 9.10848-98.8416c12.90752-12.672 13.0048-23.27552 0.32768-36.18304-12.68224-12.91776-23.27552-13.01504-36.1984-0.3328-44.62592 43.82208-51.0464 113.47968-15.17056 164.72064 10.38336 14.81728 20.8128 16.66048 35.64032 6.27712 14.82752-10.37824 16.67584-20.81792 6.29248-35.64032zM958.69143 940.07808a76.8 76.8 0 0 0-9.10848-98.8416c-12.90752-12.672-12.99968-23.27552-0.32768-36.18304 12.68736-12.91776 23.28064-13.01504 36.1984-0.3328 44.63104 43.82208 51.0464 113.47968 15.17056 164.72064-10.38336 14.81728-20.81792 16.66048-35.64544 6.27712-14.82752-10.37824-16.6656-20.81792-6.28736-35.64032z"
    fill="#CCCCCC"/>
</svg>
