<?xml version="1.0" standalone="no"?><!DOCTYPE svg PUBLIC "-//W3C//DTD SVG 1.1//EN"
  "http://www.w3.org/Graphics/SVG/1.1/DTD/svg11.dtd">
<svg class="icon" width="64px" height="64.00px" viewBox="0 0 1024 1024" version="1.1"
     xmlns="http://www.w3.org/2000/svg">
  <path d="M0 0h1024v1024H0z" fill="#FFFFFF" fill-opacity=".01"/>
  <path
    d="M783.758222 114.289778H235.064889c-35.271111 0-63.886222 28.558222-63.886222 63.886222v668.615111c0 35.328 28.558222 63.943111 63.886222 63.943111h548.750222c35.328 0 63.943111-28.615111 63.943111-63.943111V178.176a64.056889 64.056889 0 0 0-64-63.886222z m-294.684444 63.886222v186.368l-7.736889-7.736889-29.582222-29.582222a21.788444 21.788444 0 0 0-30.72 0l-39.367111 38.912V178.176h107.406222z m-171.349334 0V424.391111c0 17.464889 14.108444 31.573333 31.630223 31.573333 20.650667 0 40.561778-8.135111 55.296-22.698666l31.516444-31.288889 31.004445 31.004444c14.108444 14.108444 33.109333 22.414222 53.077333 22.983111h1.251555a31.573333 31.573333 0 0 0 31.573334-31.573333V178.176h230.741333v554.268444H235.178667V178.176h82.545777zM235.064889 846.791111V796.444444h548.693333v50.403556H235.064889z"
    fill="#999999"/>
</svg>
