<svg height="804" width="1133" viewBox="0 0 1133 804" xmlns="http://www.w3.org/2000/svg">
    <defs/>
    <g transform="translate(5.5,5.5)" id="page1">
        <rect y="0" height="794" width="1123" fill="#ffffff" x="0"/>
        <g transform="translate(113.00,76.00)" id="shape1">
            <path fill-rule="nonzero" fill="#43b4ff"
                  d="M85.3,56.0C91.9,56.0,97.3,50.6,97.3,44.0L97.3,12.0C97.3,5.4,91.9,.0,85.3,.0L12.0,.0C5.4,.0,.0,5.4,.0,12.0L.0,44.0C.0,50.6,5.4,56.0,12.0,56.0L85.3,56.0z"
                  stroke="#323232"/>
            <text xml:space="preserve" style="fill:#191919;font-family:Microsoft YaHei;font-size:20.00pt"><tspan y="38.5" x="21.6">教师</tspan></text>
        </g>
        <g transform="translate(922.74,76.00)" id="shape2">
            <path fill-rule="nonzero" fill="#e6dfd0"
                  d="M85.3,56.0C91.9,56.0,97.3,50.6,97.3,44.0L97.3,12.0C97.3,5.4,91.9,.0,85.3,.0L12.0,.0C5.4,.0,.0,5.4,.0,12.0L.0,44.0C.0,50.6,5.4,56.0,12.0,56.0L85.3,56.0z"
                  stroke="#323232"/>
            <text xml:space="preserve" style="fill:#191919;font-family:Microsoft YaHei;font-size:20.00pt"><tspan y="38.5" x="21.6">学生</tspan></text>
        </g>
        <g transform="translate(512.63,76.00)" id="shape3">
            <path fill-rule="nonzero" fill="#50ad76"
                  d="M85.3,56.0C91.9,56.0,97.3,50.6,97.3,44.0L97.3,12.0C97.3,5.4,91.9,.0,85.3,.0L12.0,.0C5.4,.0,.0,5.4,.0,12.0L.0,44.0C.0,50.6,5.4,56.0,12.0,56.0L85.3,56.0z"
                  stroke="#323232"/>
            <text xml:space="preserve" style="fill:#191919;font-family:Microsoft YaHei;font-size:20.00pt"><tspan y="38.5" x="8.1">服务器</tspan></text>
        </g>
        <path transform="translate(161.63,132.00)" id="shape4" fill="none" d="M.0,.0L.0,581.0" stroke="#191919"
              stroke-width="4"/>
        <path transform="translate(561.26,132.00)" id="shape5" fill="none" d="M.0,.0L.0,581.0" stroke="#191919"
              stroke-width="4"/>
        <path transform="translate(971.37,132.00)" id="shape6" fill="none" d="M.0,.0L.0,581.0" stroke="#191919"
              stroke-width="4"/>
        <path fill-rule="nonzero" transform="translate(154.07,189.00)" id="shape7" fill="#43b4ff"
              d="M15.1,477.0L15.1,.0L.0,.0L.0,477.0L15.1,477.0z" stroke="#000000"/>
        <path fill-rule="nonzero" transform="translate(553.69,167.00)" id="shape8" fill="#50ad76"
              d="M15.1,513.0L15.1,.0L.0,.0L.0,513.0L15.1,513.0z" stroke="#000000"/>
        <path fill-rule="nonzero" transform="translate(963.80,246.00)" id="shape9" fill="#e6dfd0"
              d="M15.1,321.0L15.1,.0L.0,.0L.0,321.0L15.1,321.0z" stroke="#000000"/>
        <g transform="translate(161.63,189.00)" id="shape10">
            <path fill="none" d="M.0,.0L389.8,.0" stroke="#35609f" stroke-width="3"/>
            <path stroke-linecap="round" fill="#35609f" d="M389.8,-4.9L399.6,.0L389.8,4.9L389.8,-4.9" stroke-width="1"
                  stroke="#35609f"/>
        </g>
        <g transform="translate(971.37,246.00)" id="shape11">
            <path fill="none" d="M.0,.0L-400.3,.0" stroke="#191919" stroke-width="3"/>
            <path stroke-linecap="round" fill="#191919" d="M-400.3,4.9L-410.1,.0L-400.3,-4.9L-400.3,4.9"
                  stroke-width="1" stroke="#191919"/>
        </g>
        <g transform="translate(963.80,350.00)" id="shape12">
            <path fill="none" d="M.0,.0L-392.7,-0.1" stroke="#191919" stroke-width="3"/>
            <path stroke-linecap="round" fill="#191919" d="M-392.7,4.8L-402.5,-0.1L-392.7,-5.0L-392.7,4.8"
                  stroke-width="1" stroke="#191919"/>
        </g>
        <g transform="translate(963.80,539.85)" id="shape13">
            <path fill="none" d="M.0,.0L-392.7,.0" stroke="#191919" stroke-width="3"/>
            <path stroke-linecap="round" fill="#191919" d="M-392.7,4.9L-402.5,.0L-392.7,-4.9L-392.7,4.9"
                  stroke-width="1" stroke="#191919"/>
        </g>
        <g transform="translate(169.20,363.85)" id="shape14">
            <path fill="none" d="M.0,.0L382.3,.0" stroke="#35609f" stroke-width="3"/>
            <path stroke-linecap="round" fill="#35609f" d="M382.3,-4.9L392.1,.0L382.3,4.9L382.3,-4.9" stroke-width="1"
                  stroke="#35609f"/>
        </g>
        <g transform="translate(553.69,226.85)" id="shape15">
            <path stroke-dasharray="11,5" fill="none" d="M.0,.0L-382.3,.0" stroke="#35609f" stroke-width="3"/>
            <path stroke-linecap="round" fill="#35609f" d="M-382.3,4.9L-392.1,.0L-382.3,-4.9L-382.3,4.9"
                  stroke-width="1" stroke="#35609f"/>
        </g>
        <g transform="translate(553.69,402.85)" id="shape16">
            <path stroke-dasharray="11,5" fill="none" d="M.0,.0L-382.3,.0" stroke="#35609f" stroke-width="3"/>
            <path stroke-linecap="round" fill="#35609f" d="M-382.3,4.9L-392.1,.0L-382.3,-4.9L-382.3,4.9"
                  stroke-width="1" stroke="#35609f"/>
        </g>
        <g transform="translate(169.20,589.85)" id="shape17">
            <path fill="none" d="M.0,.0L382.3,.0" stroke="#35609f" stroke-width="3"/>
            <path stroke-linecap="round" fill="#35609f" d="M382.3,-4.9L392.1,.0L382.3,4.9L382.3,-4.9" stroke-width="1"
                  stroke="#35609f"/>
        </g>
        <g transform="translate(553.69,627.85)" id="shape18">
            <path stroke-dasharray="11,5" fill="none" d="M.0,.0L-382.3,.0" stroke="#35609f" stroke-width="3"/>
            <path stroke-linecap="round" fill="#35609f" d="M-382.3,4.9L-392.1,.0L-382.3,-4.9L-382.3,4.9"
                  stroke-width="1" stroke="#35609f"/>
        </g>
        <g transform="translate(246.53,113.00)" id="shape19">
            <text xml:space="preserve" style="fill:#35609f;font-family:Microsoft YaHei;font-size:20.00pt"><tspan y="53.5" x="8.9">1.登录并新建考试</tspan></text>
        </g>
        <g transform="translate(261.17,216.00)" id="shape20">
            <text xml:space="preserve" style="fill:#35609f;font-family:Microsoft YaHei;font-size:20.00pt"><tspan y="53.5" x="7.8">1.新建考试成功</tspan></text>
        </g>
        <g transform="translate(261.17,283.00)" id="shape21">
            <text xml:space="preserve" style="fill:#35609f;font-family:Microsoft YaHei;font-size:20.00pt"><tspan y="53.5" x="7.8">2.查看考试状态</tspan></text>
        </g>
        <g transform="translate(261.17,397.00)" id="shape22">
            <text xml:space="preserve" style="fill:#35609f;font-family:Microsoft YaHei;font-size:20.00pt"><tspan y="53.5" x="7.8">2.返回考试信息</tspan></text>
        </g>
        <g transform="translate(261.17,511.00)" id="shape23">
            <text xml:space="preserve" style="fill:#35609f;font-family:Microsoft YaHei;font-size:20.00pt"><tspan y="53.5" x="7.8">3.查看成绩分析</tspan></text>
        </g>
        <g transform="translate(261.17,625.00)" id="shape24">
            <text xml:space="preserve" style="fill:#35609f;font-family:Microsoft YaHei;font-size:20.00pt"><tspan y="53.5" x="7.8">3.返回成绩信息</tspan></text>
        </g>
        <g transform="translate(666.04,160.00)" id="shape25">
            <text xml:space="preserve" style="fill:#000000;font-family:Microsoft YaHei;font-size:20.00pt"><tspan y="36.0" x="7.8">1.登录并进入考</tspan>
                <tspan
                        y="71.0" x="86.8">试</tspan></text>
        </g>
        <g transform="translate(568.83,273.85)" id="shape26">
            <path stroke-dasharray="11,5" fill="none" d="M.0,.0L392.7,.0" stroke="#191919" stroke-width="3"/>
            <path stroke-linecap="round" fill="#191919" d="M392.7,-4.9L402.5,.0L392.7,4.9L392.7,-4.9" stroke-width="1"
                  stroke="#191919"/>
        </g>
        <g transform="translate(666.04,259.00)" id="shape27">
            <text xml:space="preserve" style="fill:#000000;font-family:Microsoft YaHei;font-size:20.00pt"><tspan y="53.5" x="34.8">1.随机发题</tspan></text>
        </g>
        <g transform="translate(666.04,330.00)" id="shape28">
            <text xml:space="preserve" style="fill:#000000;font-family:Microsoft YaHei;font-size:20.00pt"><tspan y="53.5" x="34.8">2.自动保存</tspan></text>
        </g>
        <g transform="translate(666.04,380.50)" id="shape29">
            <text xml:space="preserve" style="fill:#000000;font-family:Microsoft YaHei;font-size:20.00pt"><tspan y="53.5" x="34.8">2.自动保存</tspan></text>
        </g>
        <g transform="translate(963.80,448.85)" id="shape30">
            <path fill="none" d="M.0,.0L-392.7,.0" stroke="#191919" stroke-width="3"/>
            <path stroke-linecap="round" fill="#191919" d="M-392.7,4.9L-402.5,.0L-392.7,-4.9L-392.7,4.9"
                  stroke-width="1" stroke="#191919"/>
        </g>
        <g transform="translate(666.04,472.00)" id="shape32">
            <text xml:space="preserve" style="fill:#000000;font-family:Microsoft YaHei;font-size:20.00pt"><tspan y="53.5" x="34.8">3.提交答卷</tspan></text>
        </g>
    </g>
</svg>
