<svg width="1133" height="804" viewBox="0 0 1133 804" xmlns="http://www.w3.org/2000/svg">
    <defs/>
    <g transform="translate(5.5,5.5)" id="page1">
        <rect x="0" width="1123" height="794" y="0" fill="#ffffff"/>
        <g transform="translate(490.76,107.07)" id="group1">
            <path stroke="#4c85d9" transform="translate(0.00,-0.00)" id="shape2" fill="#4c85d9" fill-rule="nonzero"
                  d="M70.5,64.2C109.4,64.2,141.0,49.8,141.0,32.1C141.0,14.4,109.4,.0,70.5,.0C31.6,.0,.0,14.4,.0,32.1C.0,49.8,31.6,64.2,70.5,64.2z"/>
            <path stroke="#4c85d9" transform="translate(0.00,50.94)" id="shape3" fill="#4c85d9" fill-rule="nonzero"
                  d="M70.5,26.4C31.8,26.4,.4,14.6,.0,.0L.0,20.3C.9,34.7,32.1,46.2,70.5,46.2C108.9,46.2,140.1,34.7,141.0,20.3L141.0,.0C140.6,14.6,109.2,26.4,70.5,26.4z"/>
            <path stroke="#4c85d9" transform="translate(0.00,85.40)" id="shape4" fill="#4c85d9" fill-rule="nonzero"
                  d="M70.5,26.4C31.8,26.4,.4,14.6,.0,.0L.0,20.3C.9,34.7,32.1,46.2,70.5,46.2C108.9,46.2,140.1,34.7,141.0,20.3L141.0,.0C140.6,14.6,109.2,26.4,70.5,26.4z"/>
            <path stroke="#4c85d9" transform="translate(0.00,117.63)" id="shape5" fill="#4c85d9" fill-rule="nonzero"
                  d="M70.5,26.4C31.8,26.4,.4,14.6,.0,.0L.0,20.3C.9,34.7,32.1,46.2,70.5,46.2C108.9,46.2,140.1,34.7,141.0,20.3L141.0,.0C140.6,14.6,109.2,26.4,70.5,26.4z"/>
        </g>
        <g transform="translate(430.76,353.74)" id="table6">
            <g>
                <path stroke-width="2" stroke="#868686" fill="#007faf" d="M.0,.0L261.0,.0L261.0,79.8L.0,79.8L.0,.0z"/>
                <text style="fill:#ffffff;font-family:Microsoft YaHei;font-size:20.00pt" xml:space="preserve"><tspan x="63.0" y="50.4">服务端软件</tspan></text>
            </g>
            <g>
                <path stroke-width="2" stroke="#868686" fill="#007faf"
                      d="M.0,79.8L261.0,79.8L261.0,194.0L.0,194.0L.0,79.8z"/>
                <text style="fill:#191919;font-family:Microsoft YaHei;font-size:16.00pt" xml:space="preserve"><tspan x="25.5" y="130.9">用户管理、题目管理、</tspan>
                    <tspan x="25.5" y="158.9">考试管理、成绩管理等</tspan></text>
            </g>
        </g>
        <g transform="translate(778.00,353.74)" id="table7">
            <g>
                <path stroke-width="2" stroke="#868686" fill="#cbe3f8" d="M.0,.0L261.0,.0L261.0,79.8L.0,79.8L.0,.0z"/>
                <text style="fill:#ffffff;font-family:Microsoft YaHei;font-size:20.00pt" xml:space="preserve"><tspan x="63.0" y="50.4">学生客户端</tspan></text>
            </g>
            <g>
                <path stroke-width="2" stroke="#868686" fill="#cbe3f8"
                      d="M.0,79.8L261.0,79.8L261.0,194.0L.0,194.0L.0,79.8z"/>
                <text style="fill:#191919;font-family:Microsoft YaHei;font-size:16.00pt" xml:space="preserve"><tspan x="15.0" y="144.9">登录、答题、提交答案等</tspan></text>
            </g>
        </g>
        <g transform="translate(83.52,353.74)" id="table8">
            <g>
                <path stroke-width="2" stroke="#868686" fill="#7cc2f2" d="M.0,.0L261.0,.0L261.0,79.8L.0,79.8L.0,.0z"/>
                <text style="fill:#ffffff;font-family:Microsoft YaHei;font-size:20.00pt" xml:space="preserve"><tspan x="63.0" y="50.4">教师客户端</tspan></text>
            </g>
            <g>
                <path stroke-width="2" stroke="#868686" fill="#7cc2f2"
                      d="M.0,79.8L261.0,79.8L261.0,194.0L.0,194.0L.0,79.8z"/>
                <text style="fill:#191919;font-family:Microsoft YaHei;font-size:16.00pt" xml:space="preserve"><tspan x="46.5" y="130.9">出题、新建考试、</tspan>
                    <tspan x="57.0" y="158.9">查看成绩分析等</tspan></text>
            </g>
        </g>
        <path stroke="#323232" transform="matrix(0.00,-1.00,1.00,0.00,541.8,362.3)" id="shape9" fill="#9b9b9b"
              fill-rule="nonzero"
              d="M.0,19.5L19.5,.0L19.5,11.7L77.8,11.7L77.8,.0L97.3,19.5L77.8,38.9L77.8,27.2L19.5,27.2L19.5,38.9L.0,19.5z"/>
        <path stroke="#323232" transform="translate(688.37,431.42)" id="shape10" fill="#9b9b9b" fill-rule="nonzero"
              d="M.0,19.5L19.5,.0L19.5,11.7L77.8,11.7L77.8,.0L97.3,19.5L77.8,38.9L77.8,27.2L19.5,27.2L19.5,38.9L.0,19.5z"/>
        <path stroke="#323232" transform="translate(337.74,431.42)" id="shape11" fill="#9b9b9b" fill-rule="nonzero"
              d="M.0,19.5L19.5,.0L19.5,11.7L77.8,11.7L77.8,.0L97.3,19.5L77.8,38.9L77.8,27.2L19.5,27.2L19.5,38.9L.0,19.5z"/>
        <g transform="translate(643.00,158.00)" id="shape12">
            <text style="fill:#191919;font-family:Microsoft YaHei;font-size:20.00pt" xml:space="preserve"><tspan x="19.5" y="50.5">数据库</tspan></text>
        </g>
    </g>
</svg>
